HIERARCHY
ROOT SpineBase
{
  OFFSET 0.000000 0.000000 0.000000
  CHANNELS 6 Xposition Yposition Zposition Zrotation Xrotation Yrotation
  JOINT SpineMid
  {
    OFFSET 0.000000 26.622211 0.000000
    CHANNELS 3 Zrotation Xrotation Yrotation
    JOINT SpineShoulder
    {
      OFFSET 0.045394 19.892797 -0.754207
      CHANNELS 3 Zrotation Xrotation Yrotation
      JOINT Neck
      {
        OFFSET 0.027268 6.624772 -0.539265
        CHANNELS 3 Zrotation Xrotation Yrotation
        JOINT Head
        {
          OFFSET -2.780254 11.752161 2.552368
          CHANNELS 3 Zrotation Xrotation Yrotation
          End Site
          {
            OFFSET 0 0 0
          }
        }
      }
      JOINT ShoulderLeft
      {
        OFFSET -12.159879 -3.020369 4.114181
        CHANNELS 3 Zrotation Xrotation Yrotation
        JOINT ElbowLeft
        {
          OFFSET -1.732901 -23.280152 7.603186
          CHANNELS 3 Zrotation Xrotation Yrotation
          JOINT WristLeft
          {
            OFFSET -2.011884 -18.253562 -1.759186
            CHANNELS 3 Zrotation Xrotation Yrotation
            JOINT HandLeft
            {
              OFFSET -1.273515 -5.469489 -2.910280
              CHANNELS 3 Zrotation Xrotation Yrotation
              JOINT HandTipLeft
              {
                OFFSET -0.136986 -4.901679 -0.170451
                CHANNELS 3 Zrotation Xrotation Yrotation
                End Site
                {
                  OFFSET 0 0 0
                }
              }
              JOINT ThumbLeft
              {
                OFFSET -1.543311 0.912527 -1.303494
                CHANNELS 3 Zrotation Xrotation Yrotation
                End Site
                {
                  OFFSET 0 0 0
                }
              }
            }
          }
        }
      }
      JOINT ShoulderRight
      {
        OFFSET 10.645792 -1.938118 -6.881930
        CHANNELS 3 Zrotation Xrotation Yrotation
        JOINT ElbowRight
        {
          OFFSET 7.754654 -19.880907 -3.302967
          CHANNELS 3 Zrotation Xrotation Yrotation
          JOINT WristRight
          {
            OFFSET -2.208793 -19.567692 -7.016005
            CHANNELS 3 Zrotation Xrotation Yrotation
            JOINT HandRight
            {
              OFFSET -1.915808 -6.684880 -2.301650
              CHANNELS 3 Zrotation Xrotation Yrotation
              JOINT HandTipRight
              {
                OFFSET -0.446400 -6.135393 -1.096204
                CHANNELS 3 Zrotation Xrotation Yrotation
                End Site
                {
                  OFFSET 0 0 0
                }
              }
              JOINT ThumbRight
              {
                OFFSET 0.055522 -1.555446 -2.702126
                CHANNELS 3 Zrotation Xrotation Yrotation
                End Site
                {
                  OFFSET 0 0 0
                }
              }
            }
          }
        }
      }
    }
  }
  JOINT HipLeft
  {
    OFFSET -5.468293 0.541502 -1.153453
    CHANNELS 3 Zrotation Xrotation Yrotation
    JOINT KneeLeft
    {
      OFFSET 3.722702 -33.193514 0.773025
      CHANNELS 3 Zrotation Xrotation Yrotation
      JOINT AnkleLeft
      {
        OFFSET 5.294441 -32.499024 3.655848
        CHANNELS 3 Zrotation Xrotation Yrotation
        JOINT FootLeft
        {
          OFFSET -1.683165 -6.547402 -0.239111
          CHANNELS 3 Zrotation Xrotation Yrotation
          End Site
          {
            OFFSET 0 0 0
          }
        }
      }
    }
  }
  JOINT HipRight
  {
    OFFSET 5.108530 1.210707 -4.786881
    CHANNELS 3 Zrotation Xrotation Yrotation
    JOINT KneeRight
    {
      OFFSET 4.478011 -33.343957 -2.341834
      CHANNELS 3 Zrotation Xrotation Yrotation
      JOINT AnkleRight
      {
        OFFSET 1.141178 -33.868856 5.305239
        CHANNELS 3 Zrotation Xrotation Yrotation
        JOINT FootRight
        {
          OFFSET -4.220856 -4.188547 -5.662562
          CHANNELS 3 Zrotation Xrotation Yrotation
          End Site
          {
            OFFSET 0 0 0
          }
        }
      }
    }
  }
}
MOTION
Frames: 13
Frame Time: 0.033333
16.063129 83.685546 362.886600 -0.027780 -3.612998 1.963554 0.232309 0.369234 -1.957363 0.282934 0.140981 0.028076 -6.437025 -0.038075 0.687735 0.000000 0.000000 0.000000 -14.186773 -9.777663 -4.209095 9.320911 12.061212 3.143142 5.699786 -4.265795 -0.265376 -11.034410 38.632105 2.738192 0.000000 0.000000 0.000000 0.000000 0.000000 0.000000 2.496166 -21.255437 -9.932201 -14.444309 37.424999 14.627506 -13.688277 12.785103 -1.417789 6.998311 24.180770 3.741046 0.000000 0.000000 0.000000 0.000000 0.000000 0.000000 -2.859547 16.570748 -0.059304 4.823605 -15.310752 -0.796457 -8.106801 60.101793 -11.581957 0.000000 0.000000 0.000000 -13.146478 33.697195 7.482015 48.977124 -54.133235 27.343535 -3.853137 15.264907 -22.761938 0.000000 0.000000 0.000000
15.593867 82.721970 363.366872 -0.387098 -4.006090 2.198473 0.315124 0.373605 -2.217242 0.271444 0.119539 0.015693 -6.809063 2.565072 1.567854 0.000000 0.000000 0.000000 -11.277344 -6.669749 -3.106443 7.326430 9.621302 2.787589 4.853069 -6.087908 0.445688 -12.191326 40.067788 3.121464 0.000000 0.000000 0.000000 0.000000 0.000000 0.000000 0.572663 -19.496096 -9.409595 -6.823821 34.340653 9.960703 -16.706652 12.269699 0.135561 9.231419 24.357200 2.439565 0.000000 0.000000 0.000000 0.000000 0.000000 0.000000 -1.439674 19.236536 -0.166146 3.314576 -19.937051 -1.630199 -11.082071 66.182729 -9.529794 0.000000 0.000000 0.000000 -12.735820 33.986215 7.274659 54.094057 -55.243197 31.651722 -0.698102 9.925415 -28.246518 0.000000 0.000000 0.000000
15.264340 80.377560 363.798773 -0.597460 -4.252845 2.893042 0.378704 0.390713 -2.927934 0.297295 0.147854 0.010219 -7.261250 4.304834 2.221633 0.000000 0.000000 0.000000 -8.882760 -3.602396 -2.298590 5.739958 7.517975 2.360301 2.250536 -5.767582 1.370887 -9.892946 38.222595 1.859946 0.000000 0.000000 0.000000 0.000000 0.000000 0.000000 -1.305628 -17.892260 -8.787138 -2.322693 32.420436 7.377462 -17.804102 12.491985 0.678878 7.365831 21.770405 2.552042 0.000000 0.000000 0.000000 0.000000 0.000000 0.000000 -1.009349 21.318776 -0.667163 3.717955 -23.756999 -1.881968 -5.197460 68.738407 -13.765697 0.000000 0.000000 0.000000 -12.601616 35.095008 6.908563 60.024481 -56.767113 36.854010 2.698658 -1.053259 -26.915844 0.000000 0.000000 0.000000
15.159549 77.194410 364.181146 -0.518754 -4.360529 3.702565 0.354188 0.354541 -3.732290 0.274317 0.130302 0.011288 -7.565191 5.224187 2.550711 0.000000 0.000000 0.000000 -7.254125 -0.269197 -1.802824 3.421268 7.922665 2.054613 0.070346 -8.546772 2.805737 -6.963678 41.294083 0.577102 0.000000 0.000000 0.000000 0.000000 0.000000 0.000000 -3.533262 -15.195588 -7.577965 -1.082034 31.336040 6.718428 -14.987436 14.066421 -0.637281 4.821536 12.848957 3.430124 0.000000 0.000000 0.000000 0.000000 0.000000 0.000000 -1.762317 23.088241 -1.103979 5.808619 -27.085496 -1.509380 -21.511718 74.521876 -2.402599 0.000000 0.000000 0.000000 -12.534488 36.331617 6.401013 63.338133 -58.036537 40.048593 8.689355 -15.410458 -14.106065 0.000000 0.000000 0.000000
15.404739 73.339095 364.416980 -0.100496 -4.327064 4.113866 0.266733 0.377749 -4.113000 0.243638 0.129639 0.023668 -7.622644 5.553228 2.570827 0.000000 0.000000 0.000000 -6.744790 2.091646 -1.642303 -0.291613 10.541810 2.174547 -1.358522 -3.441741 2.721510 -5.268104 33.588511 0.271671 0.000000 0.000000 0.000000 0.000000 0.000000 0.000000 -6.503075 -12.968179 -6.376799 0.920356 31.705349 5.642932 -17.904361 15.121143 -0.339325 6.237160 10.039995 3.928603 0.000000 0.000000 0.000000 0.000000 0.000000 0.000000 -4.429629 24.516707 -0.774562 9.809739 -29.629277 -0.416076 -23.974770 78.059942 -1.339867 0.000000 0.000000 0.000000 -13.864235 38.541887 7.047150 65.698735 -59.620375 42.479738 11.564094 -18.912530 -5.574456 0.000000 0.000000 0.000000
15.671612 69.421861 364.662481 0.335117 -4.395251 4.942384 0.180264 0.426008 -4.909857 0.214829 0.141750 0.036521 -7.515320 5.463301 2.399024 0.000000 0.000000 0.000000 -6.762195 5.324121 -1.656821 -4.025653 16.761354 2.404515 -4.190324 -5.858431 3.708577 -1.979111 27.802883 -1.030473 0.000000 0.000000 0.000000 0.000000 0.000000 0.000000 -7.825408 -11.074568 -5.398439 -1.181422 33.183626 6.706538 -23.060026 20.962613 0.357529 9.627861 2.137274 5.305266 0.000000 0.000000 0.000000 0.000000 0.000000 0.000000 -6.350517 27.118406 -0.788041 13.391735 -34.064513 0.718747 24.324692 80.874951 -45.347649 0.000000 0.000000 0.000000 -14.748353 42.001433 7.481184 66.742037 -61.858518 44.337401 9.796974 -15.199459 -2.111840 0.000000 0.000000 0.000000
16.126977 66.522671 364.838798 1.029895 -4.216503 5.981380 0.117383 0.455102 -5.900526 0.194578 0.143203 0.061671 -7.703054 3.750686 1.780261 0.000000 0.000000 0.000000 -7.814216 8.046523 -1.886583 -8.157440 22.600104 3.396676 -5.668645 4.243005 3.277384 0.594695 12.750914 -0.630567 0.000000 0.000000 0.000000 0.000000 0.000000 0.000000 -8.054455 -9.439042 -4.601665 -7.334007 34.861733 9.891275 -26.360660 28.675827 1.261472 9.741580 -1.586011 6.961376 0.000000 0.000000 0.000000 0.000000 0.000000 0.000000 -9.076931 28.519055 -0.997345 17.453560 -35.786203 2.202731 30.934853 70.829649 -45.492810 0.000000 0.000000 0.000000 -15.715240 43.025938 6.976077 65.613635 -62.216821 43.034713 7.758439 -13.232260 9.525184 0.000000 0.000000 0.000000
16.738238 65.001455 364.949317 1.833813 -3.916553 6.496125 0.053134 0.489451 -6.364339 0.175260 0.159241 0.091127 -7.664278 1.382271 0.907414 0.000000 0.000000 0.000000 -9.841216 10.007708 -2.298440 -11.130994 30.575068 5.128824 -6.291036 10.734061 2.753548 4.681750 7.563641 2.423170 0.000000 0.000000 0.000000 0.000000 0.000000 0.000000 -7.748170 -7.986322 -3.947019 -15.852911 37.665186 14.352179 -27.138803 30.517970 1.116124 7.500387 -3.519285 6.628431 0.000000 0.000000 0.000000 0.000000 0.000000 0.000000 -12.335688 28.388604 -0.845015 21.142148 -34.773497 3.476634 38.837002 62.830881 -47.717587 0.000000 0.000000 0.000000 -16.930262 43.793404 6.968749 63.235827 -62.497534 40.747903 6.156223 -11.944063 13.795182 0.000000 0.000000 0.000000
17.192884 65.642420 365.011405 2.393279 -3.505771 8.336252 0.045063 0.487645 -8.176122 0.157040 0.141576 0.113029 -7.209336 -1.121607 -0.011073 0.000000 0.000000 0.000000 -12.730095 10.188178 -2.902832 -13.562524 41.626928 8.574579 -1.965042 5.202089 1.349129 2.548348 14.633810 5.312901 0.000000 0.000000 0.000000 0.000000 0.000000 0.000000 -6.798614 -6.768760 -3.461511 -24.955644 39.108428 19.092542 -28.872751 35.429538 2.426763 0.787907 -7.859140 3.157485 0.000000 0.000000 0.000000 0.000000 0.000000 0.000000 -12.790341 26.968908 -3.034801 21.307489 -31.590812 3.286060 42.356681 56.973803 -46.560676 0.000000 0.000000 0.000000 -15.209439 43.276852 3.953550 56.789432 -61.383019 34.946808 5.611039 -11.631602 13.419138 0.000000 0.000000 0.000000
17.558850 67.943148 365.064498 2.922553 -3.140844 8.827116 -0.005363 0.444829 -8.642087 0.143736 0.114935 0.133290 -7.326425 -2.565109 -0.474723 0.000000 0.000000 0.000000 -16.497634 9.441291 -3.727917 -13.662218 51.261729 12.648459 0.811833 1.893825 0.120019 -3.013240 20.611767 6.975685 0.000000 0.000000 0.000000 0.000000 0.000000 0.000000 -3.831590 -6.074809 -3.516534 -37.742105 40.302715 25.619827 -26.653338 33.949633 1.387811 -0.660255 -7.664240 1.974594 0.000000 0.000000 0.000000 0.000000 0.000000 0.000000 -12.640354 24.189934 -4.265428 18.534605 -26.812415 2.022972 43.554615 54.933801 -45.231027 0.000000 0.000000 0.000000 -14.121226 41.271110 2.179125 51.782176 -59.597252 30.513570 2.256879 -7.113090 8.760343 0.000000 0.000000 0.000000
17.695075 71.342305 365.207582 2.968835 -2.907048 8.433930 0.085456 0.413556 -8.251404 0.176542 0.094784 0.141865 -6.986606 -3.129693 -0.719802 0.000000 0.000000 0.000000 -18.763106 7.370681 -4.361875 -16.859357 61.142704 18.342241 4.682809 -4.160279 0.035020 -0.744093 25.227886 10.738790 0.000000 0.000000 0.000000 0.000000 0.000000 0.000000 -1.418504 -6.055021 -3.764596 -48.181535 41.314470 31.449242 -23.960360 32.594177 0.094151 2.044689 -9.683876 2.371914 0.000000 0.000000 0.000000 0.000000 0.000000 0.000000 -12.717978 19.417888 -4.851382 16.366117 -19.025750 1.247735 46.677414 59.598880 -51.196512 0.000000 0.000000 0.000000 -12.811812 40.014707 1.608798 48.129544 -58.420827 27.933098 5.144559 -9.848643 4.399096 0.000000 0.000000 0.000000
17.788123 75.236773 365.356483 2.954266 -2.770490 8.601492 0.211991 0.353181 -8.421005 0.208120 0.064174 0.149792 -7.120243 -2.427173 -0.526710 0.000000 0.000000 0.000000 -20.999534 5.202395 -5.043104 -18.794075 69.532230 23.899034 8.022515 -8.478991 0.104395 3.792073 29.656366 15.192524 0.000000 0.000000 0.000000 0.000000 0.000000 0.000000 0.616181 -6.343007 -4.116164 -56.675109 42.264529 36.485256 -24.290961 30.361079 -0.848897 1.489812 -5.993481 3.063532 0.000000 0.000000 0.000000 0.000000 0.000000 0.000000 -12.036263 14.625207 -6.085463 13.958582 -11.323450 0.809435 37.294300 62.911220 -46.109649 0.000000 0.000000 0.000000 -10.908770 38.946670 0.352739 45.995090 -57.527282 26.784339 5.238477 -7.240091 -7.187783 0.000000 0.000000 0.000000
18.040751 78.854334 365.451697 2.956338 -2.450719 8.669596 0.277957 0.295884 -8.495056 0.248133 0.061521 0.155660 -6.802719 -1.886529 -0.432126 0.000000 0.000000 0.000000 -22.264110 2.241341 -5.652710 -19.062484 75.874383 27.103469 10.420006 -9.383281 -0.159908 9.402811 28.999372 19.653131 0.000000 0.000000 0.000000 0.000000 0.000000 0.000000 2.121590 -7.199540 -4.496336 -61.691791 43.785620 39.770679 -27.923327 25.635958 -2.480068 3.116519 -3.460609 3.476321 0.000000 0.000000 0.000000 0.000000 0.000000 0.000000 -11.702932 10.152398 -7.063096 12.138478 -4.467433 0.762674 17.590490 63.685227 -32.153575 0.000000 0.000000 0.000000 -9.710094 37.937949 -0.457238 44.619204 -56.695147 26.028316 -0.117783 6.787957 -18.389417 0.000000 0.000000 0.000000
